<svg width="173" height="40" viewBox="0 0 173 40" fill="none" xmlns="http://www.w3.org/2000/svg">
<path d="M34.1422 5.85781C30.3647 2.08031 25.3422 0 20 0C14.6578 0 9.63531 2.08031 5.85781 5.85781C2.08031 9.63531 0 14.6578 0 20C0 25.3422 2.08039 30.3646 5.85781 34.1422C9.63523 37.9198 14.6578 40 20 40C25.3422 40 30.3647 37.9197 34.1422 34.1422C37.9197 30.3647 40 25.3422 40 20C40 14.6578 37.9196 9.63539 34.1422 5.85781Z" fill="#33CC95"/>
<mask id="mask0_122_4" style="mask-type:luminance" maskUnits="userSpaceOnUse" x="6" y="6" width="29" height="29">
<path d="M34.2858 6.85718H6.85718V34.2858H34.2858V6.85718Z" fill="white"/>
</mask>
<g mask="url(#mask0_122_4)">
<path d="M20.5714 8V33.1429" stroke="white" stroke-width="2" stroke-linecap="round" stroke-linejoin="round"/>
<path d="M26.2858 12.5714H17.7144C16.6535 12.5714 15.6361 12.9928 14.8859 13.743C14.1358 14.4931 13.7144 15.5105 13.7144 16.5714C13.7144 17.6323 14.1358 18.6497 14.8859 19.3998C15.6361 20.15 16.6535 20.5714 17.7144 20.5714H23.4286C24.4895 20.5714 25.5069 20.9928 26.2571 21.743C27.0072 22.4931 27.4286 23.5105 27.4286 24.5714C27.4286 25.6323 27.0072 26.6497 26.2571 27.3998C25.5069 28.15 24.4895 28.5714 23.4286 28.5714H13.7144" stroke="white" stroke-width="2" stroke-linecap="round" stroke-linejoin="round"/>
</g>
<path d="M62.488 28.312C61.448 28.312 60.5207 28.1473 59.706 27.818C58.8913 27.4713 58.198 26.9947 57.626 26.388C57.0713 25.764 56.6467 25.01 56.352 24.126C56.0747 23.242 55.936 22.254 55.936 21.162C55.936 20.0873 56.0747 19.1167 56.352 18.25C56.6293 17.366 57.0367 16.612 57.574 15.988C58.1287 15.364 58.8047 14.8873 59.602 14.558C60.3993 14.2113 61.3093 14.038 62.332 14.038C63.4587 14.038 64.4207 14.2287 65.218 14.61C66.0327 14.9913 66.6913 15.5027 67.194 16.144C67.714 16.7853 68.0867 17.5307 68.312 18.38C68.5547 19.212 68.676 20.0873 68.676 21.006V22.15H59.914V22.358C59.914 23.2593 60.1567 23.9787 60.642 24.516C61.1273 25.036 61.89 25.296 62.93 25.296C63.7273 25.296 64.3773 25.14 64.88 24.828C65.3827 24.4987 65.8507 24.1087 66.284 23.658L68.208 26.05C67.6013 26.7607 66.804 27.3153 65.816 27.714C64.8453 28.1127 63.736 28.312 62.488 28.312ZM62.41 16.872C61.63 16.872 61.0147 17.132 60.564 17.652C60.1307 18.1547 59.914 18.8307 59.914 19.68V19.888H64.698V19.654C64.698 18.822 64.5073 18.1547 64.126 17.652C63.762 17.132 63.19 16.872 62.41 16.872ZM76.0216 28.312C74.7043 28.312 73.5949 28.104 72.6936 27.688C71.7923 27.2547 70.9863 26.648 70.2756 25.868L72.5376 23.58C73.0229 24.1173 73.5603 24.542 74.1496 24.854C74.7389 25.166 75.4063 25.322 76.1516 25.322C76.9143 25.322 77.4429 25.2093 77.7376 24.984C78.0323 24.7413 78.1796 24.4207 78.1796 24.022C78.1796 23.3807 77.7203 22.9993 76.8016 22.878L75.3196 22.696C72.2516 22.3147 70.7176 20.9107 70.7176 18.484C70.7176 17.8253 70.8389 17.2273 71.0816 16.69C71.3416 16.1353 71.6969 15.6673 72.1476 15.286C72.6156 14.8873 73.1703 14.584 73.8116 14.376C74.4703 14.1507 75.2069 14.038 76.0216 14.038C76.7323 14.038 77.3563 14.09 77.8936 14.194C78.4483 14.2807 78.9336 14.4193 79.3496 14.61C79.7829 14.7833 80.1729 15.0087 80.5196 15.286C80.8836 15.546 81.2389 15.8407 81.5856 16.17L79.3756 18.432C78.9423 17.9987 78.4483 17.6607 77.8936 17.418C77.3563 17.158 76.8016 17.028 76.2296 17.028C75.5709 17.028 75.1029 17.132 74.8256 17.34C74.5483 17.548 74.4096 17.8253 74.4096 18.172C74.4096 18.536 74.5049 18.822 74.6956 19.03C74.9036 19.2207 75.2849 19.3593 75.8396 19.446L77.3736 19.654C80.3723 20.0527 81.8716 21.422 81.8716 23.762C81.8716 24.4207 81.7329 25.0273 81.4556 25.582C81.1783 26.1367 80.7796 26.622 80.2596 27.038C79.7569 27.4367 79.1416 27.7487 78.4136 27.974C77.7029 28.1993 76.9056 28.312 76.0216 28.312ZM90.6397 28V14.35H94.4877V16.664H94.6437C94.8864 15.936 95.3024 15.3207 95.8917 14.818C96.481 14.298 97.287 14.038 98.3097 14.038C99.2457 14.038 100.043 14.272 100.702 14.74C101.36 15.208 101.837 15.8927 102.132 16.794H102.21C102.331 16.4127 102.513 16.0573 102.756 15.728C103.016 15.3813 103.328 15.0867 103.692 14.844C104.056 14.6013 104.463 14.4107 104.914 14.272C105.364 14.116 105.85 14.038 106.37 14.038C107.687 14.038 108.692 14.506 109.386 15.442C110.096 16.378 110.452 17.7127 110.452 19.446V28H106.604V19.758C106.604 18.0247 105.98 17.158 104.732 17.158C104.16 17.158 103.64 17.3227 103.172 17.652C102.704 17.9813 102.47 18.484 102.47 19.16V28H98.6217V19.758C98.6217 18.0247 97.9977 17.158 96.7497 17.158C96.4724 17.158 96.195 17.2013 95.9177 17.288C95.6577 17.3573 95.415 17.4787 95.1897 17.652C94.9817 17.8253 94.8084 18.042 94.6697 18.302C94.5484 18.5447 94.4877 18.8307 94.4877 19.16V28H90.6397ZM119.41 28.312C118.405 28.312 117.503 28.1473 116.706 27.818C115.926 27.4887 115.259 27.012 114.704 26.388C114.167 25.764 113.751 25.01 113.456 24.126C113.161 23.242 113.014 22.254 113.014 21.162C113.014 20.07 113.161 19.082 113.456 18.198C113.751 17.314 114.167 16.5687 114.704 15.962C115.259 15.338 115.926 14.8613 116.706 14.532C117.503 14.2027 118.405 14.038 119.41 14.038C120.415 14.038 121.308 14.2027 122.088 14.532C122.885 14.8613 123.553 15.338 124.09 15.962C124.645 16.5687 125.069 17.314 125.364 18.198C125.659 19.082 125.806 20.07 125.806 21.162C125.806 22.254 125.659 23.242 125.364 24.126C125.069 25.01 124.645 25.764 124.09 26.388C123.553 27.012 122.885 27.4887 122.088 27.818C121.308 28.1473 120.415 28.312 119.41 28.312ZM119.41 25.27C120.173 25.27 120.762 25.036 121.178 24.568C121.594 24.1 121.802 23.4327 121.802 22.566V19.784C121.802 18.9173 121.594 18.25 121.178 17.782C120.762 17.314 120.173 17.08 119.41 17.08C118.647 17.08 118.058 17.314 117.642 17.782C117.226 18.25 117.018 18.9173 117.018 19.784V22.566C117.018 23.4327 117.226 24.1 117.642 24.568C118.058 25.036 118.647 25.27 119.41 25.27ZM128.548 28V14.35H132.396V16.664H132.552C132.795 15.9533 133.219 15.338 133.826 14.818C134.433 14.298 135.273 14.038 136.348 14.038C137.752 14.038 138.809 14.506 139.52 15.442C140.248 16.378 140.612 17.7127 140.612 19.446V28H136.764V19.758C136.764 18.874 136.625 18.224 136.348 17.808C136.071 17.3747 135.577 17.158 134.866 17.158C134.554 17.158 134.251 17.2013 133.956 17.288C133.661 17.3573 133.393 17.4787 133.15 17.652C132.925 17.8253 132.743 18.042 132.604 18.302C132.465 18.5447 132.396 18.8307 132.396 19.16V28H128.548ZM149.73 28.312C148.69 28.312 147.763 28.1473 146.948 27.818C146.134 27.4713 145.44 26.9947 144.868 26.388C144.314 25.764 143.889 25.01 143.594 24.126C143.317 23.242 143.178 22.254 143.178 21.162C143.178 20.0873 143.317 19.1167 143.594 18.25C143.872 17.366 144.279 16.612 144.816 15.988C145.371 15.364 146.047 14.8873 146.844 14.558C147.642 14.2113 148.552 14.038 149.574 14.038C150.701 14.038 151.663 14.2287 152.46 14.61C153.275 14.9913 153.934 15.5027 154.436 16.144C154.956 16.7853 155.329 17.5307 155.554 18.38C155.797 19.212 155.918 20.0873 155.918 21.006V22.15H147.156V22.358C147.156 23.2593 147.399 23.9787 147.884 24.516C148.37 25.036 149.132 25.296 150.172 25.296C150.97 25.296 151.62 25.14 152.122 24.828C152.625 24.4987 153.093 24.1087 153.526 23.658L155.45 26.05C154.844 26.7607 154.046 27.3153 153.058 27.714C152.088 28.1127 150.978 28.312 149.73 28.312ZM149.652 16.872C148.872 16.872 148.257 17.132 147.806 17.652C147.373 18.1547 147.156 18.8307 147.156 19.68V19.888H151.94V19.654C151.94 18.822 151.75 18.1547 151.368 17.652C151.004 17.132 150.432 16.872 149.652 16.872ZM166.804 14.35H170.392L165.14 30.106C164.793 31.1633 164.299 31.9433 163.658 32.446C163.034 32.9487 162.133 33.2 160.954 33.2H158.562V30.21H161.136L161.604 28.702L156.82 14.35H160.642L162.644 20.72L163.632 24.672H163.788L164.802 20.72L166.804 14.35Z" fill="white"/>
</svg>
